<?xml version="1.0" encoding="utf-8"?>
<!-- Generator: Adobe Illustrator 19.1.0, SVG Export Plug-In . SVG Version: 6.00 Build 0)  -->
<svg version="1.1" id="Lager_1" xmlns="http://www.w3.org/2000/svg" xmlns:xlink="http://www.w3.org/1999/xlink" x="0px" y="0px"
	 viewBox="0 0 364.2696838 50" enable-background="new 0 0 364.2696838 50" xml:space="preserve">
<g>
	<path fill="#FFFFFF" d="M42.8767738,7.3957152c-4.6088753-4.7517591-10.6503639-7.056601-18.1125011-7.056601
		c-8.6831131,0-15.8750954,3.8624961-20.557085,10.9190979C1.4270387,15.4653997,0,20.352541,0,25.5090256
		c0,6.8488121,2.5141518,13.0941353,6.7172837,17.4344749C11.1266832,47.419323,17.5097198,50,24.8988438,50
		c7.1214008,0,13.6375904-2.8532677,18.4557705-8.343998c3.8624992-4.4157867,6.1714973-10.4468327,6.1714973-17.0377598
		C49.5261116,17.776123,47.1531219,11.7384882,42.8767738,7.3957152z M25.6420765,47.419323
		c-5.0146141,0-9.4928703-2.2383156-12.2105513-5.8322792C9.29076,36.0216751,7.3273649,29.5785007,7.3273649,21.9070511
		c0-11.865757,6.3823271-19.0618973,16.2783012-19.0618973c5.2969379,0,9.5706501,2.1734147,12.7615108,6.3808055
		c3.7958717,5.018569,5.8355255,11.3952169,5.8355255,18.5205727C42.2027016,39.8922844,35.6183662,47.419323,25.6420765,47.419323z
		"/>
	<path fill="#FFFFFF" d="M94.3296738,46.2712631c-1.9007263-0.6116028-3.2572861-2.3169098-4.4798813-5.2262573
		L73.3654251,1.0815355C73.0246887,0.3391144,72.7522049,0,72.2109756,0c-0.4737854,0-0.8071213,0.3391144-1.0830536,0.9483845
		L53.3495674,40.0918579c-1.2915573,2.7851181-2.3040314,4.7524681-3.7992172,5.769001
		c-1.4228821,0.9467621-2.8435326,0.6099854-2.8435326,1.7652435c0,0.6774178,0.4681091,0.6739769,1.1504936,0.6739769h13.6350555
		c1.0854912,0,1.6282349,0.0740242,1.6282349-0.6739769c0-1.4920425-2.104454-0.884243-4.0741386-1.630619
		c-1.8303452-0.6798515-2.6416245-1.6591415-2.6416245-3.4267159c0-1.2153969,0.5411224-2.3179131,1.0854912-3.6801491
		l1.9009285-4.2381401c0.9483833-2.3787727,1.9007225-2.350399,4.3411484-2.350399h11.6003723
		c2.4419479,0,3.327858-0.2104988,4.2721863,2.1641121l2.6496353,6.3087692
		c0.4738922,1.1546516,0.6758957,2.0005455,0.6758957,2.6827278c0,2.0298195-1.2226944,2.5253754-3.3904266,3.4031792
		c-0.6132278,0.2725868-0.9442291,0.3494949-0.9442291,0.8281517c0,0.6084557,0.4680023,0.61306,1.211235,0.61306h16.1532669
		c1.1495819,0,1.6907043-0.0302277,1.6907043-0.8415031C97.6510468,46.3007774,96.0309219,46.807621,94.3296738,46.2712631z
		 M74.9962006,29.3000793H64.9524689c-1.6241798,0-2.4411354-0.679369-2.4411354-1.4923725
		c0-0.4055367,0.133152-1.0466118,0.4033051-1.6600399l6.1039543-13.6132317
		c0.2750244-0.6181946,0.6847229-1.0137339,1.0157242-1.0137339c0.2759323,0,0.6215439,0.307251,0.8852081,1.0600157
		l5.4305954,13.3462296c0.2661972,0.6774178,0.4057388,1.6845894,0.4057388,2.0237026
		C76.7558594,28.4949169,76.0775299,29.3000793,74.9962006,29.3000793z"/>
	<path fill="#FFFFFF" d="M144.474884,46.4019814c-1.6989136-0.3367844-3.5249939-1.2859802-5.2928772-2.7786293
		c-2.7120972-2.3040314-6.7798462-7.0566025-12.4100189-14.3855896c-3.2630692-4.2057686-5.0250626-6.5114212-5.0250626-7.3957138
		c0-0.5385876,0.3349533-1.1503925,1.1502914-1.8950462l9.8352356-9.0296288
		c3.5314941-3.1850791,6.585144-5.8321791,10.3866882-7.119678c1.3557434-0.4786544,2.240036-1.030117,2.240036-2.0488796
		c0-0.6143405-0.4080658-1.4487365-1.2210693-1.4487365H127.9888c-1.2857742,0-1.9657288,1.1045517-1.9657288,1.7811577
		c0,0.8810484,0.8072205,1.1657546,1.8967667,1.3701966c2.1717911,0.4006703,3.1948166,1.4613395,3.1948166,2.9525709
		c0,1.6995263-1.5664825,3.9218841-4.7548981,6.8392406l-11.1265869,10.2696505
		c-0.4721603,0.4071598-0.5468903,0.6264496-0.7545776,0.6264496c-0.4721603,0-0.2752075-0.5319557-0.2752075-1.6190681V10.3787861
		c0-2.7875528-0.3325424-4.4766345,1.2917404-5.8321791c1.6289444-1.355849,3.7018051-1.3084362,3.7018051-2.8036222
		c0-0.5411227-0.7048569-1.4429054-1.6614532-1.4429054h-16.5549469c-1.010849,0-1.6947556,0.9017828-1.6947556,1.5784904
		c0,1.4992424,2.0338898,1.3335623,4.2737274,2.1463618c2.5141525,0.8803387,2.6438828,3.0957603,2.6438828,6.694591v28.5618687
		c0,2.713726,0.1388092,4.5398102-1.4878082,6.0407791c-1.6922226,1.4854507-3.6956329,0.6718941-3.6956329,2.1688042
		c0,0.8112793,0.5034332,0.8091049,1.3876266,0.8091049h17.7800751c1.082962,0,1.5592804,0.0711327,1.5592804-0.8091049
		c0-1.5610008-2.2458115-0.9871521-4.3485413-1.8007622c-2.7810593-1.0887337-3.1949997-2.4741211-3.1949997-6.3366203V29.3041859
		c0-0.9458485-0.2659149-1.4869709,0.4828949-2.1708794l0.779686-0.808033
		c0.2725906-0.2053547,0.4619446-0.3423595,0.6656723-0.3423595c0.6116028,0,1.1088257,0.8112793,2.0587311,2.1669254
		c6.9908905,9.5690289,11.5829315,16.1533642,14.8418427,19.0674763c1.4246979,1.2874985,3.0425415,1.7653427,5.2094727,1.7653427
		c5.2269592,0.0648003,7.8000183,0,8.205658,0c0.8818512,0,1.2224274-0.1995773,1.2224274-1.0854912
		C147.6697693,46.807621,146.5087585,46.807621,144.474884,46.4019814z"/>
	<path fill="#FFFFFF" d="M236.2498474,0.3391144c-8.692749,0-15.8790588,3.8624961-20.5642853,10.9190979
		c-2.7810669,4.2071877-4.2072906,9.0943289-4.2072906,14.2508135c0,6.8488121,2.5117188,13.0941353,6.7149506,17.4344749
		C222.6090088,47.419323,228.9833221,50,236.3788452,50c7.119873,0,13.6375885-2.8532677,18.4492798-8.343998
		c3.8714294-4.4157867,6.1788025-10.4468327,6.1788025-17.0377598c0-6.8421192-2.3755188-12.8797541-6.6459961-17.2225266
		C249.742218,2.6439562,243.7080231,0.3391144,236.2498474,0.3391144z M237.1236877,47.419323
		c-5.0185547,0-9.496109-2.2383156-12.2121735-5.8322792c-4.1391296-5.5653687-6.1082153-12.008543-6.1082153-19.6799927
		c0-11.865757,6.3783722-19.0618973,16.2807465-19.0618973c5.2984467,0,9.574707,2.1734147,12.7550201,6.3808055
		c3.8032684,5.018569,5.8467712,11.3952169,5.8467712,18.5205727
		C253.6858368,39.8922844,247.0983582,47.419323,237.1236877,47.419323z"/>
	<path fill="#FFFFFF" d="M289.8981628,0.3391144c-8.684021,0-15.8685913,3.8624961-20.5513916,10.9190979
		c-2.7874756,4.2071877-4.2089233,9.0943289-4.2089233,14.2508135c0,6.8488121,2.5117188,13.0941353,6.7174988,17.4344749
		C276.262085,47.419323,282.6452332,50,290.040863,50c7.1230164,0,13.6328125-2.8532677,18.4518127-8.343998
		c3.8681641-4.4157867,6.1720886-10.4468327,6.1720886-17.0377598c0-6.8421192-2.3785706-12.8797541-6.6459961-17.2225266
		C303.4074707,2.6439562,297.3650818,0.3391144,289.8981628,0.3391144z M290.7807312,47.419323
		c-5.0137024,0-9.4984436-2.2383156-12.2113647-5.8322792c-4.1374207-5.5653687-6.1039429-12.008543-6.1039429-19.6799927
		c0-11.865757,6.373291-19.0618973,16.2838745-19.0618973c5.286377,0,9.5666809,2.1734147,12.7532959,6.3808055
		c3.7935181,5.018569,5.8314514,11.3952169,5.8314514,18.5205727
		C307.3340454,39.8922844,300.759552,47.419323,290.7807312,47.419323z"/>
	<path fill="#FFFFFF" d="M338.0782776,1.2194529L316.4334717,1.354125c-1.0189819,0-1.4213867,0.3406355-1.4213867,1.1502914
		c0,1.4951861,1.8951721,0.8810482,4.4751282,1.6971941c2.5148621,0.8169575,2.716156,2.7137265,2.716156,6.3783722v28.7014084
		c0,2.713726-0.0000916,4.5398102-1.6290283,6.0407791c-1.6972046,1.4854507-3.7693787,0.6718941-3.7693787,2.1688042
		c0,0.8112793,0.4494019,0.8091049,1.3224487,0.8091049h21.0996094c7.8759155,0,13.5678406-1.3534737,18.1856384-6.0387077
		c4.5496521-4.6152611,6.8570251-10.6825352,6.8570251-18.0782509
		C364.2696838,9.8706493,354.4985352,1.2194529,338.0782776,1.2194529z M338.7712097,46.6119995
		c-8.0024719,0-10.5678406-1.6987152-10.5678406-8.1467552V7.8654456c0-3.5940647,1.6794739-4.3403397,6.5665894-4.3403397
		c13.3697815,0,21.7778625,9.2282925,21.7778625,23.9473152C356.547821,39.68713,350.0349731,46.6119995,338.7712097,46.6119995z"/>
	<path fill="#FFFFFF" d="M213.0741577,3.3693407c1.0813293-0.4698317,2.174942-0.7209692,2.174942-1.8031131
		c0-0.4803783-0.5524902-1.2661482-1.4285736-1.2661482h-14.4578857c-1.3522949,0-2.026474,0.8547286-2.026474,1.530625
		c0,1.3660914,1.6266174,1.1075197,3.8664551,1.591853c2.6472015,0.6053152,3.9307404,1.5999541,3.9307404,3.9753771
		c0,1.5618129-0.6053162,3.9270501-1.8303375,7.0465169l-8.9547882,23.0239067
		c-0.2709808,0.7511444-0.6100922,1.1709938-0.9483948,1.1709938c-0.268631,0-0.6077423-0.3986855-0.8860168-1.1498299
		l-10.1425018-24.0054436l-3.1965332,8.3092537l2.1434937,5.1873856l8.3503876,20.2879791
		c0.6775208,1.6955719,1.358078,2.5112267,1.9673462,2.5112267c0.6759033,0,1.1560822-0.8817482,1.8319702-2.5108986
		l15.1286163-37.5182228C210.0228424,6.2218418,211.4433899,4.0524368,213.0741577,3.3693407z"/>
	<path fill="#FFFFFF" d="M162.3903503,9.6818981c-0.6823883-1.6915159-0.9483795-2.9182701-0.9483795-3.5939636
		c0-1.2185402,0.6756897-2.0354977,2.100296-2.3746119c1.7638245-0.4770317,2.7826843-0.9663808,2.7826843-1.9795661
		c0-0.6134279-0.4056396-1.4336772-1.2875061-1.4336772h-14.3855896c-1.2858734,0-2.0322418,0.8202493-2.0322418,1.5026358
		c0,1.1495816,1.4189148,1.2940124,2.7787323,2.0411997c1.9007111,1.0829554,2.9180603,3.5626392,4.3426666,7.0919037
		l14.5226898,36.4979019l-0.0040588,0.0316391c0.6807709,1.6972961,1.2559662,2.5216103,1.8652344,2.5216103
		c0.6797485,0,0.9985809-0.6992989,1.6784363-2.3348351l1.5454865-4.1894264l-2.2414551-5.8282204L162.3903503,9.6818981z"/>
</g>
</svg>
